# This file uses centimeters as units for non-parametric coordinates.

mtllib glass.mtl
g default
v -14.280083 -3.684036 43.166855
v 9.949434 -3.684036 44.045662
v -16.410168 -3.684036 43.081936
v 13.189299 -3.684036 44.001938
v -18.498453 -3.684036 42.951733
v 30.795580 -3.684036 -7.847367
v 16.380880 -3.684036 43.946648
v -20.508808 -3.684036 42.597927
v 29.150434 -3.684036 30.994068
v 19.581404 -3.684036 43.553314
v -22.453001 -3.684036 42.219307
v 29.565392 -3.684036 27.821672
v 22.438660 -3.684036 43.324970
v 30.615858 -3.684036 8.220996
v 30.650776 -3.684036 -10.579449
v -24.251638 -3.684036 41.646667
v -26.646280 -3.684036 38.735397
v 28.616436 -3.684036 36.889450
v 25.051723 -3.684036 42.911652
v 28.955189 -3.684036 34.050682
v 30.533995 -3.684036 -13.268733
v -26.726267 -3.684036 -16.347517
v -26.060625 -3.684036 41.040863
v -26.835072 -3.684036 36.931168
v 27.616327 -3.684036 41.965687
v 30.325245 -3.684036 -15.868473
v -27.676525 -3.684036 14.481188
v -27.212698 -3.684036 32.699810
v 28.406858 -3.684036 39.559589
v 30.050915 -3.684036 -18.333475
v -26.883474 -3.684036 -14.620834
v -27.079456 -3.684036 34.992100
v 29.702787 -3.684036 -20.620890
v 25.474760 -3.684036 -24.982700
v -27.374945 -3.684036 30.593479
v 29.210878 -3.684036 -22.690952
v 22.881941 -3.684036 -25.578501
v -26.525936 -3.684036 -18.039728
v 27.789684 -3.684036 -24.507679
v 20.245939 -3.684036 -26.321903
v -26.180098 -3.684036 -19.669455
v -25.826632 -3.684036 -21.209732
v 1.383790 -3.684036 -27.763529
v -25.527878 -3.684036 -22.635057
v 17.563709 -3.684036 -26.573009
v -25.201838 -3.684036 -23.921846
v -24.228447 -3.684036 -25.048796
v -20.949736 -3.684036 -26.325687
v -15.925831 -3.684036 -26.902119
v -22.777046 -3.684036 -25.997257
v -17.656120 -3.684036 -26.791481
v -19.357887 -3.684036 -26.607140
v -17.656120 -3.355385 -26.791481
v -15.925831 -3.355385 -26.902119
v 1.383790 -3.355385 -27.763529
v 17.563709 -3.355385 -26.573009
v 20.245939 -3.355385 -26.321903
v 22.881941 -3.355385 -25.578501
v 25.474760 -3.355385 -24.982700
v 27.789684 -3.355385 -24.507679
v 29.210878 -3.355385 -22.690952
v 29.702787 -3.355385 -20.620890
v 30.050915 -3.355385 -18.333475
v 30.325245 -3.355385 -15.868473
v 30.533995 -3.355385 -13.268733
v 30.650776 -3.355385 -10.579449
v 30.795580 -3.355385 -7.847367
v 30.615858 -3.355385 8.220996
v 29.565392 -3.355385 27.821672
v 29.150434 -3.355385 30.994068
v 28.955189 -3.355385 34.050682
v 28.616436 -3.355385 36.889450
v 28.406858 -3.355385 39.559589
v 27.616327 -3.355385 41.965687
v 25.051723 -3.355385 42.911652
v 22.438660 -3.355385 43.324970
v 19.581404 -3.355385 43.553314
v 16.380880 -3.355385 43.946648
v 13.189299 -3.355385 44.001938
v 9.949434 -3.355385 44.045662
v -14.280083 -3.355384 43.166855
v -16.410168 -3.355384 43.081936
v -18.498453 -3.355384 42.951733
v -20.508808 -3.355384 42.597927
v -22.453001 -3.355384 42.219307
v -24.251638 -3.355384 41.646667
v -26.060625 -3.355384 41.040863
v -26.646280 -3.355384 38.735397
v -26.835072 -3.355384 36.931168
v -27.079456 -3.355384 34.992100
v -27.212698 -3.355384 32.699810
v -27.374945 -3.355384 30.593479
v -27.676525 -3.355384 14.481188
v -26.883474 -3.355385 -14.620834
v -26.726267 -3.355385 -16.347517
v -26.525936 -3.355385 -18.039728
v -26.180098 -3.355385 -19.669455
v -25.826632 -3.355385 -21.209732
v -25.527878 -3.355385 -22.635057
v -25.201838 -3.355385 -23.921846
v -24.228447 -3.355385 -25.048796
v -22.777046 -3.355385 -25.997257
v -20.949736 -3.355385 -26.325687
v -19.357887 -3.355385 -26.607140
vt 0.416661 0.749714
vt 0.424995 0.750000
vt 0.545006 0.750000
vt 0.558338 0.750000
vt 0.571671 0.750000
vt 0.585003 0.750000
vt 0.598335 0.750000
vt 0.611668 0.750000
vt 0.625000 0.750000
vt 0.000000 0.000000
vt 0.000000 0.000000
vt 0.000000 0.000000
vt 0.000000 0.000000
vt 0.000000 0.000000
vt 0.625000 0.817808
vt 0.625000 0.919844
vt 0.000000 0.000000
vt 0.000000 0.000000
vt 0.000000 0.000000
vt 0.000000 0.000000
vt 0.000000 0.000000
vt 0.625000 1.000000
vt 0.000000 0.000000
vt 0.000000 0.000000
vt 0.000000 0.000000
vt 0.000000 0.000000
vt 0.000000 0.000000
vt 0.531884 1.000000
vt 0.469791 1.000000
vt 0.000000 0.000000
vt 0.000000 0.000000
vt 0.000000 0.000000
vt 0.000000 0.000000
vt 0.000000 0.000000
vt 0.375000 1.000000
vt 0.000000 0.000000
vt 0.000000 0.000000
vt 0.000000 0.000000
vt 0.000000 0.000000
vt 0.000000 0.000000
vt 0.375000 0.917208
vt 0.375000 0.792999
vt 0.375000 0.785833
vt 0.375000 0.778666
vt 0.375000 0.771500
vt 0.375000 0.764333
vt 0.375000 0.757167
vt 0.375000 0.750000
vt 0.383331 0.749714
vt 0.391662 0.749542
vt 0.399993 0.749485
vt 0.408327 0.749542
vt 0.416661 0.749714
vt 0.424995 0.750000
vt 0.545006 0.750000
vt 0.558338 0.750000
vt 0.571671 0.750000
vt 0.585003 0.750000
vt 0.598335 0.750000
vt 0.611668 0.750000
vt 0.625000 0.750000
vt 0.000000 0.000000
vt 0.000000 0.000000
vt 0.000000 0.000000
vt 0.000000 0.000000
vt 0.000000 0.000000
vt 0.625000 0.817808
vt 0.625000 0.919844
vt 0.000000 0.000000
vt 0.000000 0.000000
vt 0.000000 0.000000
vt 0.000000 0.000000
vt 0.000000 0.000000
vt 0.625000 1.000000
vt 0.000000 0.000000
vt 0.000000 0.000000
vt 0.000000 0.000000
vt 0.000000 0.000000
vt 0.000000 0.000000
vt 0.531884 1.000000
vt 0.469791 1.000000
vt 0.000000 0.000000
vt 0.000000 0.000000
vt 0.000000 0.000000
vt 0.000000 0.000000
vt 0.000000 0.000000
vt 0.375000 1.000000
vt 0.000000 0.000000
vt 0.000000 0.000000
vt 0.000000 0.000000
vt 0.000000 0.000000
vt 0.000000 0.000000
vt 0.375000 0.917208
vt 0.375000 0.792999
vt 0.375000 0.785833
vt 0.375000 0.778666
vt 0.375000 0.771500
vt 0.375000 0.764333
vt 0.375000 0.757167
vt 0.375000 0.750000
vt 0.383331 0.749714
vt 0.391662 0.749542
vt 0.399993 0.749485
vt 0.408327 0.749542
vt 0.416661 0.749714
vt 0.424995 0.750000
vt 0.545006 0.750000
vt 0.558338 0.750000
vt 0.571671 0.750000
vt 0.585003 0.750000
vt 0.598335 0.750000
vt 0.611668 0.750000
vt 0.625000 0.750000
vt 0.000000 0.000000
vt 0.000000 0.000000
vt 0.000000 0.000000
vt 0.000000 0.000000
vt 0.000000 0.000000
vt 0.625000 0.817808
vt 0.625000 0.919844
vt 0.000000 0.000000
vt 0.000000 0.000000
vt 0.000000 0.000000
vt 0.000000 0.000000
vt 0.000000 0.000000
vt 0.625000 1.000000
vt 0.000000 0.000000
vt 0.000000 0.000000
vt 0.000000 0.000000
vt 0.000000 0.000000
vt 0.000000 0.000000
vt 0.531884 1.000000
vt 0.469791 1.000000
vt 0.000000 0.000000
vt 0.000000 0.000000
vt 0.000000 0.000000
vt 0.000000 0.000000
vt 0.000000 0.000000
vt 0.375000 1.000000
vt 0.000000 0.000000
vt 0.000000 0.000000
vt 0.000000 0.000000
vt 0.000000 0.000000
vt 0.000000 0.000000
vt 0.375000 0.917208
vt 0.375000 0.792999
vt 0.375000 0.785833
vt 0.375000 0.778666
vt 0.375000 0.771500
vt 0.375000 0.764333
vt 0.375000 0.757167
vt 0.375000 0.750000
vt 0.383331 0.749714
vt 0.391662 0.749542
vt 0.399993 0.749485
vt 0.408327 0.749542
vn 0.000000 1.000000 -0.000000
vn 0.000000 1.000000 -0.000000
vn 0.000000 1.000000 -0.000000
vn 0.000000 1.000000 -0.000000
vn 0.000000 1.000000 -0.000000
vn 0.000000 1.000000 -0.000000
vn 0.000000 1.000000 -0.000000
vn 0.000000 1.000000 -0.000000
vn 0.000000 1.000000 -0.000000
vn 0.000000 1.000000 -0.000000
vn 0.000000 1.000000 -0.000000
vn 0.000000 1.000000 -0.000000
vn 0.000000 1.000000 -0.000000
vn 0.000000 1.000000 -0.000000
vn 0.000000 1.000000 -0.000000
vn 0.000000 1.000000 -0.000000
vn 0.000000 1.000000 -0.000000
vn 0.000000 1.000000 -0.000000
vn 0.000000 1.000000 -0.000000
vn 0.000000 1.000000 -0.000000
vn 0.000000 1.000000 -0.000000
vn 0.000000 1.000000 -0.000000
vn 0.000000 1.000000 -0.000000
vn 0.000000 1.000000 -0.000000
vn 0.000000 1.000000 -0.000000
vn 0.000000 1.000000 -0.000000
vn 0.000000 1.000000 -0.000000
vn 0.000000 1.000000 -0.000000
vn 0.000000 1.000000 -0.000000
vn 0.000000 1.000000 -0.000000
vn 0.000000 1.000000 -0.000000
vn 0.000000 1.000000 -0.000000
vn 0.000000 1.000000 -0.000000
vn 0.000000 1.000000 -0.000000
vn 0.000000 1.000000 -0.000000
vn 0.000000 1.000000 -0.000000
vn 0.000000 1.000000 -0.000000
vn 0.000000 1.000000 -0.000000
vn 0.000000 1.000000 -0.000000
vn 0.000000 1.000000 -0.000000
vn 0.000000 1.000000 -0.000000
vn 0.000000 1.000000 -0.000000
vn 0.000000 1.000000 -0.000000
vn 0.000000 1.000000 -0.000000
vn 0.000000 1.000000 -0.000000
vn 0.000000 1.000000 -0.000000
vn 0.000000 1.000000 -0.000000
vn 0.000000 1.000000 -0.000000
vn 0.000000 1.000000 -0.000000
vn 0.000000 1.000000 -0.000000
vn 0.000000 1.000000 -0.000000
vn 0.000000 1.000000 -0.000000
vn -0.000000 -1.000000 0.000000
vn -0.000000 -1.000000 0.000000
vn -0.000000 -1.000000 0.000000
vn -0.000000 -1.000000 0.000000
vn -0.000000 -1.000000 0.000000
vn -0.000000 -1.000000 0.000000
vn -0.000000 -1.000000 0.000000
vn -0.000000 -1.000000 0.000000
vn -0.000000 -1.000000 0.000000
vn -0.000000 -1.000000 0.000000
vn -0.000000 -1.000000 0.000000
vn -0.000000 -1.000000 0.000000
vn -0.000000 -1.000000 0.000000
vn -0.000000 -1.000000 0.000000
vn -0.000000 -1.000000 0.000000
vn -0.000000 -1.000000 0.000000
vn -0.000000 -1.000000 0.000000
vn -0.000000 -1.000000 0.000000
vn -0.000000 -1.000000 0.000000
vn -0.000000 -1.000000 0.000000
vn -0.000000 -1.000000 0.000000
vn -0.000000 -1.000000 0.000000
vn -0.000000 -1.000000 0.000000
vn -0.000000 -1.000000 0.000000
vn -0.000000 -1.000000 0.000000
vn -0.000000 -1.000000 0.000000
vn -0.000000 -1.000000 0.000000
vn -0.000000 -1.000000 0.000000
vn -0.000000 -1.000000 0.000000
vn -0.000000 -1.000000 0.000000
vn -0.000000 -1.000000 0.000000
vn -0.000000 -1.000000 0.000000
vn -0.000000 -1.000000 0.000000
vn -0.000000 -1.000000 0.000000
vn -0.000000 -1.000000 0.000000
vn -0.000000 -1.000000 0.000000
vn -0.000000 -1.000000 0.000000
vn -0.000000 -1.000000 0.000000
vn -0.000000 -1.000000 0.000000
vn -0.000000 -1.000000 0.000000
vn -0.000000 -1.000000 0.000000
vn -0.000000 -1.000000 0.000000
vn -0.000000 -1.000000 0.000000
vn -0.000000 -1.000000 0.000000
vn -0.000000 -1.000000 0.000000
vn -0.000000 -1.000000 0.000000
vn -0.000000 -1.000000 0.000000
vn -0.000000 -1.000000 0.000000
vn -0.000000 -1.000000 0.000000
vn -0.000000 -1.000000 0.000000
vn -0.000000 -1.000000 0.000000
vn -0.000000 -1.000000 0.000000
vn -0.063811 0.000000 -0.997962
vn -0.063811 0.000000 -0.997962
vn -0.063811 0.000000 -0.997962
vn -0.063811 0.000000 -0.997962
vn -0.049703 0.000000 -0.998764
vn -0.049703 0.000000 -0.998764
vn -0.049703 0.000000 -0.998764
vn -0.049703 0.000000 -0.998764
vn 0.073382 0.000000 -0.997304
vn 0.073382 0.000000 -0.997304
vn 0.073382 0.000000 -0.997304
vn 0.073382 0.000000 -0.997304
vn 0.093211 0.000000 -0.995646
vn 0.093211 0.000000 -0.995646
vn 0.093211 0.000000 -0.995646
vn 0.093211 0.000000 -0.995646
vn 0.271431 0.000000 -0.962458
vn 0.271431 0.000000 -0.962458
vn 0.271431 0.000000 -0.962458
vn 0.271431 0.000000 -0.962458
vn 0.223952 0.000000 -0.974600
vn 0.223952 0.000000 -0.974600
vn 0.223952 0.000000 -0.974600
vn 0.223952 0.000000 -0.974600
vn 0.201010 0.000000 -0.979589
vn 0.201010 0.000000 -0.979589
vn 0.201010 0.000000 -0.979589
vn 0.201010 0.000000 -0.979589
vn 0.787630 0.000000 -0.616149
vn 0.787630 0.000000 -0.616149
vn 0.787630 0.000000 -0.616149
vn 0.787630 0.000000 -0.616149
vn 0.972908 0.000000 -0.231192
vn 0.972908 0.000000 -0.231192
vn 0.972908 0.000000 -0.231192
vn 0.972908 0.000000 -0.231192
vn 0.988616 0.000000 -0.150460
vn 0.988616 0.000000 -0.150460
vn 0.988616 0.000000 -0.150460
vn 0.988616 0.000000 -0.150460
vn 0.993864 0.000000 -0.110607
vn 0.993864 0.000000 -0.110607
vn 0.993864 0.000000 -0.110607
vn 0.993864 0.000000 -0.110607
vn 0.996792 0.000000 -0.080039
vn 0.996792 0.000000 -0.080039
vn 0.996792 0.000000 -0.080039
vn 0.996792 0.000000 -0.080039
vn 0.999059 0.000000 -0.043384
vn 0.999059 0.000000 -0.043384
vn 0.999059 0.000000 -0.043384
vn 0.999059 0.000000 -0.043384
vn 0.998598 0.000000 -0.052927
vn 0.998598 0.000000 -0.052927
vn 0.998598 0.000000 -0.052927
vn 0.998598 0.000000 -0.052927
vn 0.999937 0.000000 0.011184
vn 0.999937 0.000000 0.011184
vn 0.999937 0.000000 0.011184
vn 0.999937 0.000000 0.011184
vn 0.998567 0.000000 0.053517
vn 0.998567 0.000000 0.053517
vn 0.998567 0.000000 0.053517
vn 0.998567 0.000000 0.053517
vn 0.991554 0.000000 0.129698
vn 0.991554 0.000000 0.129698
vn 0.991554 0.000000 0.129698
vn 0.991554 0.000000 0.129698
vn 0.997966 0.000000 0.063747
vn 0.997966 0.000000 0.063747
vn 0.997966 0.000000 0.063747
vn 0.997966 0.000000 0.063747
vn 0.992955 0.000000 0.118490
vn 0.992955 0.000000 0.118490
vn 0.992955 0.000000 0.118490
vn 0.992955 0.000000 0.118490
vn 0.996934 0.000000 0.078249
vn 0.996934 0.000000 0.078249
vn 0.996934 0.000000 0.078249
vn 0.996934 0.000000 0.078249
vn 0.950037 0.000000 0.312138
vn 0.950037 0.000000 0.312138
vn 0.950037 0.000000 0.312138
vn 0.950037 0.000000 0.312138
vn 0.346063 0.000000 0.938211
vn 0.346063 0.000000 0.938211
vn 0.346063 0.000000 0.938211
vn 0.346063 0.000000 0.938211
vn 0.156231 0.000000 0.987720
vn 0.156231 0.000000 0.987720
vn 0.156231 0.000000 0.987720
vn 0.156231 0.000000 0.987720
vn 0.079663 0.000000 0.996822
vn 0.079663 0.000000 0.996822
vn 0.079663 0.000000 0.996822
vn 0.079663 0.000000 0.996822
vn 0.121980 0.000000 0.992533
vn 0.121980 0.000000 0.992533
vn 0.121980 0.000000 0.992533
vn 0.121980 0.000000 0.992533
vn 0.017321 0.000000 0.999850
vn 0.017321 0.000000 0.999850
vn 0.017321 0.000000 0.999850
vn 0.017321 0.000000 0.999850
vn 0.013493 0.000000 0.999909
vn 0.013493 0.000000 0.999909
vn 0.013493 0.000000 0.999909
vn 0.013493 0.000000 0.999909
vn -0.036246 0.000000 0.999343
vn -0.036246 0.000000 0.999343
vn -0.036246 0.000000 0.999343
vn -0.036246 0.000000 0.999343
vn -0.039834 0.000000 0.999206
vn -0.039834 0.000000 0.999206
vn -0.039834 0.000000 0.999206
vn -0.039834 0.000000 0.999206
vn -0.062229 0.000000 0.998062
vn -0.062229 0.000000 0.998062
vn -0.062229 0.000000 0.998062
vn -0.062229 0.000000 0.998062
vn -0.173327 0.000000 0.984864
vn -0.173327 0.000000 0.984864
vn -0.173327 0.000000 0.984864
vn -0.173327 0.000000 0.984864
vn -0.191154 0.000000 0.981560
vn -0.191154 0.000000 0.981560
vn -0.191154 0.000000 0.981560
vn -0.191154 0.000000 0.981560
vn -0.303371 0.000000 0.952873
vn -0.303371 0.000000 0.952873
vn -0.303371 0.000000 0.952873
vn -0.303371 0.000000 0.952873
vn -0.317552 0.000000 0.948241
vn -0.317552 0.000000 0.948241
vn -0.317552 0.000000 0.948241
vn -0.317552 0.000000 0.948241
vn -0.969217 0.000000 0.246209
vn -0.969217 0.000000 0.246209
vn -0.969217 0.000000 0.246209
vn -0.969217 0.000000 0.246209
vn -0.994570 0.000000 0.104070
vn -0.994570 0.000000 0.104070
vn -0.994570 0.000000 0.104070
vn -0.994570 0.000000 0.104070
vn -0.992151 0.000000 0.125043
vn -0.992151 0.000000 0.125043
vn -0.992151 0.000000 0.125043
vn -0.992151 0.000000 0.125043
vn -0.998315 0.000000 0.058028
vn -0.998315 0.000000 0.058028
vn -0.998315 0.000000 0.058028
vn -0.998315 0.000000 0.058028
vn -0.997046 0.000000 0.076801
vn -0.997046 0.000000 0.076801
vn -0.997046 0.000000 0.076801
vn -0.997046 0.000000 0.076801
vn -0.999825 0.000000 0.018714
vn -0.999825 0.000000 0.018714
vn -0.999825 0.000000 0.018714
vn -0.999825 0.000000 0.018714
vn -0.999629 0.000000 -0.027241
vn -0.999629 0.000000 -0.027241
vn -0.999629 0.000000 -0.027241
vn -0.999629 0.000000 -0.027241
vn -0.995881 0.000000 -0.090671
vn -0.995881 0.000000 -0.090671
vn -0.995881 0.000000 -0.090671
vn -0.995881 0.000000 -0.090671
vn -0.993065 0.000000 -0.117563
vn -0.993065 0.000000 -0.117563
vn -0.993065 0.000000 -0.117563
vn -0.993065 0.000000 -0.117563
vn -0.978217 0.000000 -0.207584
vn -0.978217 0.000000 -0.207584
vn -0.978217 0.000000 -0.207584
vn -0.978217 0.000000 -0.207584
vn -0.974665 0.000000 -0.223668
vn -0.974665 0.000000 -0.223668
vn -0.974665 0.000000 -0.223668
vn -0.974665 0.000000 -0.223668
vn -0.978731 0.000000 -0.205146
vn -0.978731 0.000000 -0.205146
vn -0.978731 0.000000 -0.205146
vn -0.978731 0.000000 -0.205146
vn -0.969368 0.000000 -0.245614
vn -0.969368 0.000000 -0.245614
vn -0.969368 0.000000 -0.245614
vn -0.969368 0.000000 -0.245614
vn -0.756784 0.000000 -0.653665
vn -0.756784 0.000000 -0.653665
vn -0.756784 0.000000 -0.653665
vn -0.756784 0.000000 -0.653665
vn -0.547035 0.000000 -0.837110
vn -0.547035 0.000000 -0.837110
vn -0.547035 0.000000 -0.837110
vn -0.547035 0.000000 -0.837110
vn -0.176899 0.000000 -0.984229
vn -0.176899 0.000000 -0.984229
vn -0.176899 0.000000 -0.984229
vn -0.176899 0.000000 -0.984229
vn -0.174108 0.000000 -0.984727
vn -0.174108 0.000000 -0.984727
vn -0.174108 0.000000 -0.984727
vn -0.174108 0.000000 -0.984727
vn -0.107694 0.000000 -0.994184
vn -0.107694 0.000000 -0.994184
vn -0.107694 0.000000 -0.994184
vn -0.107694 0.000000 -0.994184
s off
g polySurface3 caja2
usemtl initialShadingGroup
f 53/105/1 104/156/2 103/155/3 102/154/4 101/153/5 100/152/6 99/151/7 98/150/8 97/149/9 96/148/10 95/147/11 94/146/12 93/145/13 92/144/14 91/143/15 90/142/16 89/141/17 88/140/18 87/139/19 86/138/20 85/137/21 84/136/22 83/135/23 82/134/24 81/133/25 80/132/26 79/131/27 78/130/28 77/129/29 76/128/30 75/127/31 74/126/32 73/125/33 72/124/34 71/123/35 70/122/36 69/121/37 68/120/38 67/119/39 66/118/40 65/117/41 64/116/42 63/115/43 62/114/44 61/113/45 60/112/46 59/111/47 58/110/48 57/109/49 56/108/50 55/107/51 54/106/52
f 51/53/53 49/54/54 43/55/55 45/56/56 40/57/57 37/58/58 34/59/59 39/60/60 36/61/61 33/62/62 30/63/63 26/64/64 21/65/65 15/66/66 6/67/67 14/68/68 12/69/69 9/70/70 20/71/71 18/72/72 29/73/73 25/74/74 19/75/75 13/76/76 10/77/77 7/78/78 4/79/79 2/80/80 1/81/81 3/82/82 5/83/83 8/84/84 11/85/85 16/86/86 23/87/87 17/88/88 24/89/89 32/90/90 28/91/91 35/92/92 27/93/93 31/94/94 22/95/95 38/96/96 41/97/97 42/98/98 44/99/99 46/100/100 47/101/101 50/102/102 48/103/103 52/104/104
f 51/1/105 53/105/106 54/106/107 49/2/108
f 49/2/109 54/106/110 55/107/111 43/3/112
f 43/3/113 55/107/114 56/108/115 45/4/116
f 45/4/117 56/108/118 57/109/119 40/5/120
f 40/5/121 57/109/122 58/110/123 37/6/124
f 37/6/125 58/110/126 59/111/127 34/7/128
f 34/7/129 59/111/130 60/112/131 39/8/132
f 39/8/133 60/112/134 61/113/135 36/9/136
f 36/9/137 61/113/138 62/114/139 33/10/140
f 33/10/141 62/114/142 63/115/143 30/11/144
f 30/11/145 63/115/146 64/116/147 26/12/148
f 26/12/149 64/116/150 65/117/151 21/13/152
f 21/13/153 65/117/154 66/118/155 15/14/156
f 15/14/157 66/118/158 67/119/159 6/15/160
f 6/15/161 67/119/162 68/120/163 14/16/164
f 14/16/165 68/120/166 69/121/167 12/17/168
f 12/17/169 69/121/170 70/122/171 9/18/172
f 9/18/173 70/122/174 71/123/175 20/19/176
f 20/19/177 71/123/178 72/124/179 18/20/180
f 18/20/181 72/124/182 73/125/183 29/21/184
f 29/21/185 73/125/186 74/126/187 25/22/188
f 25/22/189 74/126/190 75/127/191 19/23/192
f 19/23/193 75/127/194 76/128/195 13/24/196
f 13/24/197 76/128/198 77/129/199 10/25/200
f 10/25/201 77/129/202 78/130/203 7/26/204
f 7/26/205 78/130/206 79/131/207 4/27/208
f 4/27/209 79/131/210 80/132/211 2/28/212
f 2/28/213 80/132/214 81/133/215 1/29/216
f 1/29/217 81/133/218 82/134/219 3/30/220
f 3/30/221 82/134/222 83/135/223 5/31/224
f 5/31/225 83/135/226 84/136/227 8/32/228
f 8/32/229 84/136/230 85/137/231 11/33/232
f 11/33/233 85/137/234 86/138/235 16/34/236
f 16/34/237 86/138/238 87/139/239 23/35/240
f 23/35/241 87/139/242 88/140/243 17/36/244
f 17/36/245 88/140/246 89/141/247 24/37/248
f 24/37/249 89/141/250 90/142/251 32/38/252
f 32/38/253 90/142/254 91/143/255 28/39/256
f 28/39/257 91/143/258 92/144/259 35/40/260
f 35/40/261 92/144/262 93/145/263 27/41/264
f 27/41/265 93/145/266 94/146/267 31/42/268
f 31/42/269 94/146/270 95/147/271 22/43/272
f 22/43/273 95/147/274 96/148/275 38/44/276
f 38/44/277 96/148/278 97/149/279 41/45/280
f 41/45/281 97/149/282 98/150/283 42/46/284
f 42/46/285 98/150/286 99/151/287 44/47/288
f 44/47/289 99/151/290 100/152/291 46/48/292
f 46/48/293 100/152/294 101/153/295 47/49/296
f 47/49/297 101/153/298 102/154/299 50/50/300
f 50/50/301 102/154/302 103/155/303 48/51/304
f 48/51/305 103/155/306 104/156/307 52/52/308
f 52/52/309 104/156/310 53/105/311 51/1/312
